<?xml version="1.0" encoding="utf-8"?>
<!-- Generator: Adobe Illustrator 19.0.0, SVG Export Plug-In . SVG Version: 6.00 Build 0)  -->
<svg xmlns="http://www.w3.org/2000/svg" xmlns:xlink="http://www.w3.org/1999/xlink" version="1.1" x="0px" y="0px" viewBox="0 0 658.5 491.9" style="enable-background:new 0 0 658.5 491.9;" xml:space="preserve">
<style type="text/css">
	.st0{opacity:0.1;fill:url(#SVGID_1_);}
	.st1{opacity:0.1;}
	.st2{fill:url(#SVGID_2_);}
	.st3{fill:url(#SVGID_3_);}
	.st4{fill:url(#SVGID_4_);}
	.st5{fill:url(#SVGID_5_);}
	.st6{fill:url(#SVGID_6_);}
	.st7{fill:url(#SVGID_7_);}
	.st8{fill:url(#SVGID_8_);}
	.st9{fill:url(#SVGID_9_);}
	.st10{fill:url(#SVGID_10_);}
	.st11{fill:url(#SVGID_11_);}
	.st12{fill:url(#SVGID_12_);}
	.st13{fill:url(#SVGID_13_);}
	.st14{fill:url(#SVGID_14_);}
	.st15{fill:url(#SVGID_15_);}
	.st16{fill:url(#SVGID_16_);}
	.st17{fill:url(#SVGID_17_);}
	.st18{fill:url(#SVGID_18_);}
	.st19{fill:url(#SVGID_19_);}
	.st20{fill:url(#SVGID_20_);}
	.st21{fill:url(#SVGID_21_);}
	.st22{fill:url(#SVGID_22_);}
	.st23{fill:url(#SVGID_23_);}
	.st24{fill:url(#SVGID_24_);}
	.st25{fill:url(#SVGID_25_);}
	.st26{fill:url(#SVGID_26_);}
	.st27{fill:url(#SVGID_27_);}
	.st28{fill:url(#SVGID_28_);}
	.st29{fill:url(#SVGID_29_);}
	.st30{fill:url(#SVGID_30_);}
	.st31{fill:url(#SVGID_31_);}
	.st32{fill:#FFFFFF;}
	.st33{fill:#EC1C24;}
	.st34{fill:none;stroke:#231F20;stroke-width:6;}
	.st35{fill:#FFFFFF;stroke:#231F20;stroke-width:6;}
	.st36{fill:#231F20;}
	.st37{fill:none;stroke:#231F20;stroke-width:18;}
</style>

<g id="FreeVector.com_License">
	<g>
		<g id="FreeVector.com_Logo_20_">
			<g id="FreeVector.com_Logo_21_">
				<path d="M125.1,504.3c0-0.9-0.8-1.5-1.6-1.5c-1.9,0-2.1,1.6-2.1,3c0,1.3,0.6,2.7,2,2.7c1.1,0,1.7-0.7,1.9-1.7h3.2      c-0.3,2.7-2.4,4.3-5.1,4.3c-3,0-5.3-2.1-5.3-5.2c0-3.2,2-5.5,5.3-5.5c2.5,0,4.8,1.3,5,4H125.1z"/>
				<path d="M133.7,500.4c-3.1,0-5.3,2.3-5.3,5.3c0,3,2.2,5.3,5.3,5.3c3.1,0,5.3-2.3,5.3-5.3C139,502.7,136.8,500.4,133.7,500.4z"/>
				<path d="M116.4,507.9c-0.9,0-1.5,0.6-1.5,1.5c0,0.8,0.6,1.5,1.5,1.5c0.9,0,1.5-0.6,1.5-1.5C117.8,508.5,117.2,507.9,116.4,507.9      z"/>
				<path d="M139.3,501h3.1v1.4h0c0.6-1,1.6-1.6,2.8-1.6c1.2,0,2.3,0.4,2.9,1.6c0.8-1,1.7-1.6,3.1-1.6c3.1,0,3.5,2.4,3.5,4.3v5.9      h-3.2v-5.8c0-1.1-0.5-1.7-1.3-1.7c-1.4,0-1.5,1.1-1.5,2.7v4.8h-3.2v-5.6c0-1.2-0.3-1.9-1.2-1.9c-1.2,0-1.7,0.7-1.7,2.7v4.8h-3.2      V501z"/>
				<polygon points="73.6,510.8 69.9,510.8 66.6,501 69.9,501 71.7,507.5 71.8,507.5 73.6,501 76.8,501     "/>
				<path d="M78.6,506.7c0.1,1.3,0.8,2.2,2.2,2.2c0.8,0,1.5-0.4,1.8-1.1h3c-0.6,2.3-2.7,3.2-4.9,3.2c-3.2,0-5.3-1.9-5.3-5.2      c0-3,2.4-5.1,5.3-5.1c3.5,0,5.2,2.6,5.1,5.9H78.6z"/>
				<path d="M92.6,504.6c0-0.8-0.8-1.4-1.6-1.4c-1.8,0-2.1,1.5-2.1,2.9c0,1.3,0.5,2.6,1.9,2.6c1.1,0,1.7-0.6,1.8-1.7h3.1      c-0.3,2.6-2.3,4.1-4.9,4.1c-2.9,0-5.1-2-5.1-5c0-3.1,2-5.3,5.1-5.3c2.4,0,4.6,1.3,4.8,3.9H92.6z"/>
				<path d="M101.8,503.1h-2v4.4c0,0.8,0.5,0.9,1.1,0.9c0.3,0,0.5,0,0.8,0v2.4c-0.6,0-1.2,0.1-1.7,0.1c-2.7,0-3.4-0.8-3.4-3.4v-4.3      h-1.6V501h1.6v-3h3.2v3h2V503.1z"/>
				<path d="M106.2,500.7c-3,0-5.1,2.2-5.1,5.2c0,2.9,2.1,5.2,5.1,5.2c3,0,5.2-2.2,5.2-5.2C111.4,503,109.3,500.7,106.2,500.7z"/>
				<path d="M111.2,501h3.1v1.7h0c0.5-1.2,1.6-1.9,2.9-1.9c0.2,0,0.5,0,0.8,0.1v2.9c-0.4-0.1-0.8-0.2-1.2-0.2      c-1.6,0-2.4,1.1-2.4,2.3v4.8h-3.2V501z"/>
				<path d="M41.5,501h3.1v1.7h0c0.5-1.2,1.6-1.9,2.9-1.9c0.2,0,0.5,0,0.7,0.1v2.9c-0.4-0.1-0.8-0.2-1.2-0.2c-1.6,0-2.4,1.1-2.4,2.3      v4.8h-3.2V501z"/>
				<path d="M50.4,506.7c0.1,1.3,0.8,2.2,2.2,2.2c0.8,0,1.5-0.4,1.8-1.1h3c-0.6,2.3-2.7,3.2-4.9,3.2c-3.2,0-5.3-1.9-5.3-5.2      c0-3,2.4-5.1,5.3-5.1c3.5,0,5.2,2.6,5.1,5.9H50.4z"/>
				<path d="M60.5,506.7c0.1,1.3,0.8,2.2,2.2,2.2c0.8,0,1.5-0.4,1.8-1.1h3c-0.6,2.3-2.7,3.2-4.9,3.2c-3.2,0-5.3-1.9-5.3-5.2      c0-3,2.4-5.1,5.3-5.1c3.5,0,5.2,2.6,5.1,5.9H60.5z"/>
				<path d="M40.9,499.6c0.3,0,0.6,0,0.9,0.1v-2.3c-0.5,0-1-0.1-1.5-0.1c-2.7,0-3.7,0.9-3.7,3.7H35v2.1h1.5v7.7h3.2v-7.7h1.9V501      h-1.9v-0.4C39.7,499.7,40.2,499.6,40.9,499.6z"/>
			</g>
			<g id="FreeVector_Icon_3_">
				<circle class="st32" cx="24.6" cy="504.1" r="7.2"/>
				<g>
					<path d="M24.6,496.9c-0.7,0-1.3,0.1-1.9,0.2c0.2,0,0.4,0.2,0.5,0.5c0,0,1.4,4.5,1.5,5c0.2,0.5,0.4,1.1,0.4,1.1       c-0.1,0.1-0.2,0.2-0.3,0.4c-0.1,0.3-0.2,0.5-0.2,0.8c-0.2-0.4-1-1.4-1.6-2c0,0,0-0.4-0.2-0.9c-0.1-0.4-0.9-3.3-0.9-3.3       c-0.1-0.5-0.1-1,0.2-1.3c-2.8,1-4.9,3.7-4.9,6.8c0,2.9,1.7,5.3,4.1,6.5c-0.2-0.4-0.5-0.9-0.7-1.7c-0.2-1.3-0.3-2.2-0.4-2.9       c-0.2-1-0.2-1.2,0.2-1.7c0.2-0.2,0.4-0.3,0.5-0.4c0.2,0,0.4,0.1,0.4,0.1c0.4,0.5,1.2,1.3,1.3,1.5c0.2,0.2,0.2,0.5,0.1,0.9       c-0.1,0.1-0.2,0.2-0.3,0.2c-0.3,0.1-0.6,0-0.7-0.1c-0.2-0.2-1.3-1.2-1.3-1.2c0,0.3,0.8,0.9,1.2,1.3c0.2,0.2,0.6,0.2,0.9,0.1       c0.2-0.1,0.4-0.2,0.5-0.3c0.1-0.3,0.1-0.5,0.1-0.7c0.3,0.2,0.6,0.3,0.9,0.2c0.3-0.1,0.5-0.3,0.6-0.4c0,0.2,0.1,0.4,0.1,0.7       c0.1,0.6,0.2,1,0.3,1.2c0,0.1,0.1,0.2,0.1,0.2c0,0,0,0,0,0c-0.2,0.2-0.4,0.6-0.6,1.1c-0.1,0.3-0.2,0.8-0.2,1.2       c0,0.1,0,0.4,0,0.4c0,0,0-0.2,0.1-0.4c0-0.4,0.1-0.8,0.2-1.1c0.2-0.4,0.4-0.7,0.6-1c0,0,0,0,0,0c0.1-0.1,0-0.2,0-0.3       c-0.1-0.2-0.2-0.6-0.3-1.2c-0.1-0.9-0.2-1.3,0.1-2c0.3-0.6,1-0.6,1.2-0.5c0.1,0,0.1,0.4,0.1,0.7c0,0.3,0,0.8,0.1,1.3       c0.1,0.7,0.3,1.2,0.6,1.5c0.2,0.2,0.4,0.3,0.4,0.3c0,0-0.1-0.2-0.3-0.4c-0.2-0.3-0.4-0.8-0.5-1.4c-0.1-0.5-0.1-0.9-0.1-1.3       c0-0.5,0-0.8-0.2-0.9c-0.1,0-0.3-0.1-0.5,0l1.4-4.5c0.2-0.8,0.5-1.2,1-1.1c0,0,0,0,0,0C27.1,497.2,25.9,496.9,24.6,496.9z        M23.9,505.7c-0.4,0.1-0.8-0.2-1-0.4c-0.2-0.2-1.2-1.3-1.4-1.5c-0.3-0.3-0.1-0.9,0.6-1.2c0.2-0.1,0.5-0.1,0.6,0.1       c0.8,0.9,1.6,1.9,1.6,2.1C24.5,505.3,24.3,505.6,23.9,505.7z M27.1,507.4L27.1,507.4C27.1,507.4,27.1,507.4,27.1,507.4       C27.1,507.4,27.1,507.4,27.1,507.4z"/>
					<path d="M28.5,498c0.2,0.2,0.2,0.4,0.2,0.7l-1.2,5.4c-0.1,0.4-0.2,1.3-0.1,1.9c0.1,0.8,0.5,1.9,0.2,3.1       c-0.1,0.6-0.3,1.3-0.6,1.9c2.9-1,5-3.7,5-6.8C31.9,501.5,30.6,499.3,28.5,498z"/>
				</g>
			</g>
		</g>
		<g id="Legal_Line">
			<g>
				<path d="M169.2,501.2h2.5v9.6h-2.5V501.2z"/>
				<path d="M173.3,503.9h2.2v1h0c0.4-0.7,1.2-1.2,2-1.2c0.9,0,1.7,0.3,2,1.1c0.6-0.7,1.2-1.1,2.2-1.1c2.2,0,2.5,1.7,2.5,3v4.2h-2.3      v-4.1c0-0.8-0.4-1.2-1-1.2c-1,0-1.1,0.8-1.1,1.9v3.4h-2.3v-4c0-0.8-0.2-1.3-0.9-1.3c-0.8,0-1.2,0.5-1.2,1.9v3.4h-2.3V503.9z"/>
				<path d="M185.6,506c0-0.9,0.5-1.5,1.1-1.9c0.6-0.3,1.4-0.5,2.2-0.5c1.7,0,3.2,0.4,3.2,2.3v3c0,0.6,0,1.2,0.3,1.8h-2.3      c-0.1-0.2-0.1-0.4-0.1-0.7c-0.6,0.6-1.5,0.9-2.3,0.9c-1.3,0-2.4-0.7-2.4-2.1c0-2.3,2.5-2.1,4.1-2.4c0.4-0.1,0.6-0.2,0.6-0.6      c0-0.5-0.6-0.7-1.1-0.7c-0.6,0-1,0.3-1.1,0.9H185.6z M188.6,509.6c1.1,0,1.5-0.6,1.4-2.1c-0.3,0.2-0.9,0.2-1.4,0.4      c-0.5,0.1-0.9,0.3-0.9,0.9C187.6,509.4,188.1,509.6,188.6,509.6z"/>
				<path d="M200.4,510c0,1.1-0.2,3.3-3.5,3.3c-1.6,0-3.2-0.4-3.4-2.2h2.3c0.1,0.3,0.2,0.5,0.4,0.6c0.2,0.1,0.5,0.1,0.8,0.1      c1.1,0,1.2-0.8,1.2-1.6v-0.7h0c-0.4,0.6-1.1,1-1.9,1c-2.1,0-3.1-1.5-3.1-3.5c0-1.9,1.1-3.4,3.1-3.4c0.8,0,1.5,0.4,1.9,1.1h0      v-0.9h2.2V510z M196.9,505.4c-1,0-1.3,0.9-1.3,1.7c0,0.8,0.4,1.6,1.3,1.6c1,0,1.4-0.8,1.4-1.6      C198.3,506.3,197.9,505.4,196.9,505.4z"/>
				<path d="M203.8,507.9c0,1,0.6,1.6,1.6,1.6c0.6,0,1.1-0.3,1.3-0.8h2.1c-0.4,1.6-1.9,2.3-3.5,2.3c-2.3,0-3.8-1.4-3.8-3.7      c0-2.1,1.7-3.7,3.8-3.7c2.5,0,3.7,1.9,3.6,4.2H203.8z M206.7,506.6c0-0.8-0.6-1.4-1.4-1.4c-0.8,0-1.3,0.6-1.5,1.4H206.7z"/>
				<path d="M211.9,508.5c0,0.3,0.1,0.6,0.4,0.8c0.2,0.2,0.5,0.2,0.8,0.2c0.4,0,1.1-0.2,1.1-0.7c0-0.5-0.7-0.6-1.1-0.7      c-1.4-0.4-3.2-0.4-3.2-2.3c0-1.7,1.8-2.1,3.2-2.1c1.5,0,3.1,0.4,3.2,2.3h-2.1c0-0.3-0.1-0.5-0.3-0.6c-0.2-0.1-0.4-0.2-0.7-0.2      c-0.4,0-1,0-1,0.5c0,0.7,1.5,0.8,2.6,1c1.4,0.3,1.8,1.3,1.8,1.9c0,1.9-1.8,2.5-3.3,2.5c-1.7,0-3.3-0.6-3.4-2.5H211.9z"/>
			</g>
			<g>
				<path d="M221.7,506c0-0.9,0.5-1.5,1.1-1.9c0.6-0.3,1.4-0.5,2.2-0.5c1.7,0,3.2,0.4,3.2,2.3v3c0,0.6,0,1.2,0.3,1.8h-2.3      c-0.1-0.2-0.1-0.4-0.1-0.7c-0.6,0.6-1.5,0.9-2.3,0.9c-1.3,0-2.4-0.7-2.4-2.1c0-2.3,2.5-2.1,4.1-2.4c0.4-0.1,0.6-0.2,0.6-0.6      c0-0.5-0.6-0.7-1.1-0.7c-0.6,0-1,0.3-1.1,0.9H221.7z M224.6,509.6c1.1,0,1.5-0.6,1.4-2.1c-0.3,0.2-0.9,0.2-1.4,0.4      c-0.5,0.1-0.9,0.3-0.9,0.9C223.7,509.4,224.1,509.6,224.6,509.6z"/>
				<path d="M229.8,503.9h2.2v1.2h0c0.3-0.9,1.1-1.4,2.1-1.4c0.2,0,0.4,0,0.5,0.1v2.1c-0.3-0.1-0.6-0.1-0.9-0.1      c-1.1,0-1.7,0.8-1.7,1.7v3.5h-2.3V503.9z"/>
				<path d="M237.2,507.9c0,1,0.6,1.6,1.6,1.6c0.6,0,1.1-0.3,1.3-0.8h2.1c-0.4,1.6-1.9,2.3-3.5,2.3c-2.3,0-3.8-1.4-3.8-3.7      c0-2.1,1.7-3.7,3.8-3.7c2.5,0,3.7,1.9,3.6,4.2H237.2z M240,506.6c0-0.8-0.6-1.4-1.4-1.4c-0.8,0-1.3,0.6-1.5,1.4H240z"/>
			</g>
			<g>
				<path d="M247.6,503.9h2.2v0.8h0c0.4-0.7,1.1-1,1.9-1c2.2,0,3.1,1.9,3.1,3.8c0,1.8-1,3.5-2.9,3.5c-0.9,0-1.5-0.3-2-1h0v3.1h-2.3      V503.9z M249.8,507.3c0,1.2,0.3,2,1.4,2c1,0,1.4-1.1,1.4-2c0-0.9-0.3-1.9-1.4-1.9C250.6,505.4,249.8,505.8,249.8,507.3z"/>
				<path d="M256.2,503.9h2.2v1.2h0c0.3-0.9,1.1-1.4,2.1-1.4c0.2,0,0.4,0,0.5,0.1v2.1c-0.3-0.1-0.6-0.1-0.9-0.1      c-1.1,0-1.7,0.8-1.7,1.7v3.5h-2.3V503.9z"/>
				<path d="M264.9,503.7c2.2,0,3.7,1.6,3.7,3.7s-1.5,3.7-3.7,3.7c-2.2,0-3.7-1.6-3.7-3.7S262.7,503.7,264.9,503.7z M264.9,509.3      c1.1,0,1.4-1,1.4-1.9c0-0.9-0.3-1.9-1.4-1.9c-1.1,0-1.4,1.1-1.4,1.9C263.5,508.2,263.8,509.3,264.9,509.3z"/>
				<path d="M269.8,503.9h2.2v0.8h0c0.4-0.7,1.1-1,1.9-1c2.2,0,3.1,1.9,3.1,3.8c0,1.8-1,3.5-2.9,3.5c-0.9,0-1.5-0.3-2-1h0v3.1h-2.3      V503.9z M272,507.3c0,1.2,0.3,2,1.4,2c1,0,1.4-1.1,1.4-2c0-0.9-0.3-1.9-1.4-1.9C272.8,505.4,272,505.8,272,507.3z"/>
				<path d="M280.2,507.9c0,1,0.6,1.6,1.6,1.6c0.6,0,1.1-0.3,1.3-0.8h2.1c-0.4,1.6-1.9,2.3-3.5,2.3c-2.3,0-3.8-1.4-3.8-3.7      c0-2.1,1.7-3.7,3.8-3.7c2.5,0,3.7,1.9,3.6,4.2H280.2z M283,506.6c0-0.8-0.6-1.4-1.4-1.4c-0.8,0-1.3,0.6-1.5,1.4H283z"/>
				<path d="M286.5,503.9h2.2v1.2h0c0.3-0.9,1.1-1.4,2.1-1.4c0.2,0,0.4,0,0.5,0.1v2.1c-0.3-0.1-0.6-0.1-0.9-0.1      c-1.1,0-1.7,0.8-1.7,1.7v3.5h-2.3V503.9z"/>
				<path d="M296.4,505.3h-1.4v3.2c0,0.5,0.3,0.7,0.8,0.7c0.2,0,0.4,0,0.6,0v1.7c-0.4,0-0.8,0.1-1.2,0.1c-1.9,0-2.4-0.6-2.4-2.5      v-3.1h-1.2v-1.5h1.2v-2.1h2.3v2.1h1.4V505.3z"/>
				<path d="M301.2,511.4c-0.6,1.5-1.4,1.7-2.9,1.7h-1.1v-1.9h0.8c0.5,0,0.9-0.3,0.9-0.8c0-0.4-0.4-1.4-0.6-1.8l-1.8-4.8h2.4      l1.3,4.5h0l1.3-4.5h2.3L301.2,511.4z"/>
			</g>
			<g>
				<path d="M312.1,503.7c2.2,0,3.7,1.6,3.7,3.7s-1.5,3.7-3.7,3.7c-2.2,0-3.7-1.6-3.7-3.7S310,503.7,312.1,503.7z M312.1,509.3      c1.1,0,1.4-1,1.4-1.9c0-0.9-0.3-1.9-1.4-1.9c-1.1,0-1.4,1.1-1.4,1.9C310.8,508.2,311.1,509.3,312.1,509.3z"/>
				<path d="M317.5,505.3h-1.1v-1.5h1.1c0-2,0.7-2.6,2.6-2.6c0.4,0,0.7,0,1.1,0v1.6c-0.2,0-0.4,0-0.6,0c-0.5,0-0.8,0.1-0.8,0.7v0.3      h1.4v1.5h-1.4v5.5h-2.3V505.3z"/>
			</g>
			<g>
				<path d="M330.4,505.3H329v3.2c0,0.5,0.3,0.7,0.8,0.7c0.2,0,0.4,0,0.6,0v1.7c-0.4,0-0.8,0.1-1.2,0.1c-1.9,0-2.4-0.6-2.4-2.5v-3.1      h-1.2v-1.5h1.2v-2.1h2.3v2.1h1.4V505.3z"/>
				<path d="M331.4,501.2h2.3v3.6h0c0.3-0.7,1.3-1.2,2.1-1.2c2.3,0,2.5,1.7,2.5,2.7v4.5h-2.3v-3.4c0-1,0.1-1.9-1.1-1.9      c-0.9,0-1.2,0.7-1.2,1.5v3.8h-2.3V501.2z"/>
				<path d="M341.8,507.9c0,1,0.6,1.6,1.6,1.6c0.6,0,1.1-0.3,1.3-0.8h2.1c-0.4,1.6-1.9,2.3-3.5,2.3c-2.3,0-3.8-1.4-3.8-3.7      c0-2.1,1.7-3.7,3.8-3.7c2.5,0,3.7,1.9,3.6,4.2H341.8z M344.7,506.6c0-0.8-0.6-1.4-1.4-1.4c-0.8,0-1.3,0.6-1.5,1.4H344.7z"/>
			</g>
			<g>
				<path d="M359.2,510.8H357V510h0c-0.4,0.7-1.1,1-1.9,1c-2.2,0-3.1-1.9-3.1-3.8c0-1.8,1-3.5,2.9-3.5c0.9,0,1.5,0.3,2,1h0v-3.4h2.3      V510.8z M354.3,507.3c0,1,0.3,2,1.4,2c1.1,0,1.4-1.1,1.4-1.9c0-1-0.4-1.9-1.4-1.9C354.6,505.4,354.3,506.4,354.3,507.3z"/>
				<path d="M362.7,507.9c0,1,0.6,1.6,1.6,1.6c0.6,0,1.1-0.3,1.3-0.8h2.1c-0.4,1.6-1.9,2.3-3.5,2.3c-2.3,0-3.8-1.4-3.8-3.7      c0-2.1,1.7-3.7,3.8-3.7c2.5,0,3.7,1.9,3.6,4.2H362.7z M365.6,506.6c0-0.8-0.6-1.4-1.4-1.4c-0.8,0-1.3,0.6-1.5,1.4H365.6z"/>
				<path d="M370.7,508.5c0,0.3,0.1,0.6,0.4,0.8c0.2,0.2,0.5,0.2,0.8,0.2c0.4,0,1.1-0.2,1.1-0.7c0-0.5-0.7-0.6-1.1-0.7      c-1.4-0.4-3.2-0.4-3.2-2.3c0-1.7,1.8-2.1,3.2-2.1c1.5,0,3.1,0.4,3.2,2.3H373c0-0.3-0.1-0.5-0.3-0.6c-0.2-0.1-0.4-0.2-0.7-0.2      c-0.4,0-1,0-1,0.5c0,0.7,1.5,0.8,2.6,1c1.4,0.3,1.8,1.3,1.8,1.9c0,1.9-1.8,2.5-3.3,2.5c-1.7,0-3.3-0.6-3.4-2.5H370.7z"/>
				<path d="M378.8,503h-2.3v-1.7h2.3V503z M376.5,503.9h2.3v7h-2.3V503.9z"/>
				<path d="M387.2,510c0,1.1-0.2,3.3-3.5,3.3c-1.6,0-3.2-0.4-3.4-2.2h2.3c0.1,0.3,0.2,0.5,0.4,0.6c0.2,0.1,0.5,0.1,0.8,0.1      c1.1,0,1.2-0.8,1.2-1.6v-0.7h0c-0.4,0.6-1.1,1-1.9,1c-2.1,0-3.1-1.5-3.1-3.5c0-1.9,1.1-3.4,3.1-3.4c0.8,0,1.5,0.4,1.9,1.1h0      v-0.9h2.2V510z M383.6,505.4c-1,0-1.3,0.9-1.3,1.7c0,0.8,0.4,1.6,1.3,1.6c1,0,1.4-0.8,1.4-1.6      C385,506.3,384.6,505.4,383.6,505.4z"/>
				<path d="M388.6,503.9h2.2v1h0c0.4-0.7,1.4-1.2,2.2-1.2c2.3,0,2.5,1.7,2.5,2.7v4.5h-2.3v-3.4c0-1,0.1-1.9-1.1-1.9      c-0.9,0-1.2,0.7-1.2,1.5v3.8h-2.3V503.9z"/>
				<path d="M399,507.9c0,1,0.6,1.6,1.6,1.6c0.6,0,1.1-0.3,1.3-0.8h2.1c-0.4,1.6-1.9,2.3-3.5,2.3c-2.3,0-3.8-1.4-3.8-3.7      c0-2.1,1.7-3.7,3.8-3.7c2.5,0,3.7,1.9,3.6,4.2H399z M401.9,506.6c0-0.8-0.6-1.4-1.4-1.4c-0.8,0-1.3,0.6-1.5,1.4H401.9z"/>
				<path d="M405.4,503.9h2.2v1.2h0c0.3-0.9,1.1-1.4,2.1-1.4c0.2,0,0.4,0,0.5,0.1v2.1c-0.3-0.1-0.6-0.1-0.9-0.1      c-1.1,0-1.7,0.8-1.7,1.7v3.5h-2.3V503.9z"/>
			</g>
			<path d="M409.9,508.3h2.5v2.5h-2.5V508.3z"/>
			<g>
				<path d="M427.6,504.7c-0.1-1-0.9-1.5-1.9-1.5c-1.6,0-2.2,1.4-2.2,2.8c0,1.4,0.6,2.8,2.2,2.8c1.2,0,1.8-0.7,1.9-1.8h2.5      c-0.1,2.5-1.9,3.9-4.4,3.9c-2.9,0-4.8-2.2-4.8-5c0-2.8,1.9-5,4.8-5c2.1,0,4.3,1.3,4.4,3.6H427.6z"/>
				<path d="M431.4,501.2h2.3v3.6h0c0.3-0.7,1.3-1.2,2.1-1.2c2.3,0,2.5,1.7,2.5,2.7v4.5H436v-3.4c0-1,0.1-1.9-1.1-1.9      c-0.9,0-1.2,0.7-1.2,1.5v3.8h-2.3V501.2z"/>
				<path d="M441.8,507.9c0,1,0.6,1.6,1.6,1.6c0.6,0,1.1-0.3,1.3-0.8h2.1c-0.4,1.6-1.9,2.3-3.5,2.3c-2.3,0-3.8-1.4-3.8-3.7      c0-2.1,1.7-3.7,3.8-3.7c2.5,0,3.7,1.9,3.6,4.2H441.8z M444.6,506.6c0-0.8-0.6-1.4-1.4-1.4c-0.8,0-1.3,0.6-1.5,1.4H444.6z"/>
				<path d="M452.5,506.4c0-0.6-0.5-1-1.1-1c-1.3,0-1.5,1.1-1.5,2.1c0,0.9,0.4,1.8,1.4,1.8c0.8,0,1.2-0.5,1.3-1.2h2.2      c-0.2,1.9-1.7,2.9-3.5,2.9c-2.1,0-3.7-1.4-3.7-3.6c0-2.2,1.4-3.8,3.7-3.8c1.7,0,3.3,0.9,3.4,2.8H452.5z"/>
				<path d="M456,501.2h2.3v4.9l2.1-2.3h2.6l-2.6,2.6l2.9,4.3h-2.8l-1.7-2.8l-0.6,0.6v2.2H456V501.2z"/>
			</g>
			<g>
				<path d="M468.2,501.2h2.3v9.6h-2.3V501.2z"/>
				<path d="M474.5,503h-2.3v-1.7h2.3V503z M472.2,503.9h2.3v7h-2.3V503.9z"/>
				<path d="M480.6,506.4c0-0.6-0.5-1-1.1-1c-1.3,0-1.5,1.1-1.5,2.1c0,0.9,0.4,1.8,1.4,1.8c0.8,0,1.2-0.5,1.3-1.2h2.2      c-0.2,1.9-1.7,2.9-3.5,2.9c-2.1,0-3.7-1.4-3.7-3.6c0-2.2,1.4-3.8,3.7-3.8c1.7,0,3.3,0.9,3.4,2.8H480.6z"/>
				<path d="M486,507.9c0,1,0.6,1.6,1.6,1.6c0.6,0,1.1-0.3,1.3-0.8h2.1c-0.4,1.6-1.9,2.3-3.5,2.3c-2.3,0-3.8-1.4-3.8-3.7      c0-2.1,1.7-3.7,3.8-3.7c2.5,0,3.7,1.9,3.6,4.2H486z M488.8,506.6c0-0.8-0.6-1.4-1.4-1.4c-0.8,0-1.3,0.6-1.5,1.4H488.8z"/>
				<path d="M492.3,503.9h2.2v1h0c0.4-0.7,1.4-1.2,2.2-1.2c2.3,0,2.5,1.7,2.5,2.7v4.5h-2.3v-3.4c0-1,0.1-1.9-1.1-1.9      c-0.9,0-1.2,0.7-1.2,1.5v3.8h-2.3V503.9z"/>
				<path d="M502.5,508.5c0,0.3,0.1,0.6,0.4,0.8c0.2,0.2,0.5,0.2,0.8,0.2c0.4,0,1.1-0.2,1.1-0.7c0-0.5-0.7-0.6-1.1-0.7      c-1.4-0.4-3.2-0.4-3.2-2.3c0-1.7,1.8-2.1,3.2-2.1c1.5,0,3.1,0.4,3.2,2.3h-2.1c0-0.3-0.1-0.5-0.3-0.6c-0.2-0.1-0.4-0.2-0.7-0.2      c-0.4,0-1,0-1,0.5c0,0.7,1.5,0.8,2.6,1c1.4,0.3,1.8,1.3,1.8,1.9c0,1.9-1.8,2.5-3.3,2.5c-1.7,0-3.3-0.6-3.4-2.5H502.5z"/>
				<path d="M510.1,507.9c0,1,0.6,1.6,1.6,1.6c0.5,0,1.1-0.3,1.3-0.8h2.1c-0.4,1.6-1.9,2.3-3.5,2.3c-2.3,0-3.8-1.4-3.8-3.7      c0-2.1,1.7-3.7,3.8-3.7c2.5,0,3.7,1.9,3.6,4.2H510.1z M513,506.6c0-0.8-0.6-1.4-1.4-1.4c-0.8,0-1.3,0.6-1.5,1.4H513z"/>
			</g>
			<g>
				<path d="M521.1,505.3H520v-1.5h1.1c0-2,0.7-2.6,2.6-2.6c0.4,0,0.7,0,1.1,0v1.6c-0.2,0-0.4,0-0.6,0c-0.5,0-0.8,0.1-0.8,0.7v0.3      h1.4v1.5h-1.4v5.5h-2.3V505.3z"/>
				<path d="M528.9,503.7c2.2,0,3.7,1.6,3.7,3.7s-1.5,3.7-3.7,3.7s-3.7-1.6-3.7-3.7S526.8,503.7,528.9,503.7z M528.9,509.3      c1.1,0,1.4-1,1.4-1.9c0-0.9-0.3-1.9-1.4-1.9c-1.1,0-1.4,1.1-1.4,1.9C527.5,508.2,527.9,509.3,528.9,509.3z"/>
				<path d="M533.9,503.9h2.2v1.2h0c0.3-0.9,1.1-1.4,2.1-1.4c0.2,0,0.4,0,0.5,0.1v2.1c-0.3-0.1-0.6-0.1-0.9-0.1      c-1.1,0-1.7,0.8-1.7,1.7v3.5h-2.3V503.9z"/>
			</g>
			<g>
				<path d="M543.7,503.9h2.2v0.8h0c0.4-0.7,1.1-1,1.9-1c2.2,0,3.1,1.9,3.1,3.8c0,1.8-1,3.5-2.9,3.5c-0.9,0-1.5-0.3-2-1h0v3.1h-2.3      V503.9z M545.9,507.3c0,1.2,0.3,2,1.4,2c1,0,1.4-1.1,1.4-2c0-0.9-0.4-1.9-1.4-1.9C546.7,505.4,545.9,505.8,545.9,507.3z"/>
				<path d="M554.1,507.9c0,1,0.6,1.6,1.6,1.6c0.6,0,1.1-0.3,1.3-0.8h2.1c-0.4,1.6-1.9,2.3-3.5,2.3c-2.3,0-3.8-1.4-3.8-3.7      c0-2.1,1.7-3.7,3.8-3.7c2.5,0,3.7,1.9,3.6,4.2H554.1z M557,506.6c0-0.8-0.6-1.4-1.4-1.4c-0.8,0-1.3,0.6-1.5,1.4H557z"/>
				<path d="M560.5,503.9h2.2v1.2h0c0.3-0.9,1.1-1.4,2.1-1.4c0.2,0,0.4,0,0.5,0.1v2.1c-0.3-0.1-0.6-0.1-0.9-0.1      c-1.1,0-1.7,0.8-1.7,1.7v3.5h-2.3V503.9z"/>
				<path d="M566.1,503.9h2.2v1h0c0.4-0.7,1.2-1.2,2-1.2c0.9,0,1.7,0.3,2,1.1c0.6-0.7,1.2-1.1,2.2-1.1c2.2,0,2.5,1.7,2.5,3v4.2h-2.3      v-4.1c0-0.8-0.4-1.2-1-1.2c-1,0-1.1,0.8-1.1,1.9v3.4h-2.3v-4c0-0.8-0.2-1.3-0.9-1.3c-0.8,0-1.2,0.5-1.2,1.9v3.4h-2.3V503.9z"/>
				<path d="M580.9,503h-2.3v-1.7h2.3V503z M578.6,503.9h2.3v7h-2.3V503.9z"/>
				<path d="M586.7,505.3h-1.4v3.2c0,0.5,0.3,0.7,0.8,0.7c0.2,0,0.4,0,0.6,0v1.7c-0.4,0-0.8,0.1-1.2,0.1c-1.9,0-2.4-0.6-2.4-2.5      v-3.1h-1.2v-1.5h1.2v-2.1h2.3v2.1h1.4V505.3z"/>
				<path d="M591.9,505.3h-1.4v3.2c0,0.5,0.3,0.7,0.8,0.7c0.2,0,0.4,0,0.6,0v1.7c-0.4,0-0.8,0.1-1.2,0.1c-1.9,0-2.4-0.6-2.4-2.5      v-3.1h-1.2v-1.5h1.2v-2.1h2.3v2.1h1.4V505.3z"/>
				<path d="M594.9,507.9c0,1,0.6,1.6,1.6,1.6c0.6,0,1.1-0.3,1.3-0.8h2.1c-0.4,1.6-1.9,2.3-3.5,2.3c-2.3,0-3.8-1.4-3.8-3.7      c0-2.1,1.7-3.7,3.8-3.7c2.5,0,3.7,1.9,3.6,4.2H594.9z M597.7,506.6c0-0.8-0.6-1.4-1.4-1.4c-0.8,0-1.3,0.6-1.5,1.4H597.7z"/>
				<path d="M608.1,510.8h-2.2V510h0c-0.4,0.7-1.1,1-1.9,1c-2.2,0-3.1-1.9-3.1-3.8c0-1.8,1-3.5,2.9-3.5c0.9,0,1.5,0.3,2,1h0v-3.4      h2.3V510.8z M603.1,507.3c0,1,0.3,2,1.4,2c1.1,0,1.4-1.1,1.4-1.9c0-1-0.4-1.9-1.4-1.9C603.5,505.4,603.1,506.4,603.1,507.3z"/>
			</g>
			<g>
				<path d="M620.8,510.8h-2.2v-1h0c-0.4,0.7-1.3,1.2-2.1,1.2c-2,0-2.6-1.2-2.6-3v-4.2h2.3v4c0,0.9,0.4,1.2,1.1,1.2      c0.5,0,1.2-0.3,1.2-1.6v-3.7h2.3V510.8z"/>
				<path d="M624.1,508.5c0,0.3,0.1,0.6,0.4,0.8c0.2,0.2,0.5,0.2,0.8,0.2c0.4,0,1.1-0.2,1.1-0.7c0-0.5-0.7-0.6-1.1-0.7      c-1.4-0.4-3.2-0.4-3.2-2.3c0-1.7,1.8-2.1,3.2-2.1c1.5,0,3.1,0.4,3.2,2.3h-2.1c0-0.3-0.1-0.5-0.3-0.6c-0.2-0.1-0.4-0.2-0.7-0.2      c-0.4,0-1,0-1,0.5c0,0.7,1.5,0.8,2.6,1c1.4,0.3,1.8,1.3,1.8,1.9c0,1.9-1.8,2.5-3.3,2.5c-1.7,0-3.3-0.6-3.4-2.5H624.1z"/>
				<path d="M631.7,507.9c0,1,0.6,1.6,1.6,1.6c0.6,0,1.1-0.3,1.3-0.8h2.1c-0.4,1.6-1.9,2.3-3.5,2.3c-2.3,0-3.8-1.4-3.8-3.7      c0-2.1,1.7-3.7,3.8-3.7c2.5,0,3.7,1.9,3.6,4.2H631.7z M634.5,506.6c0-0.8-0.6-1.4-1.4-1.4c-0.8,0-1.3,0.6-1.5,1.4H634.5z"/>
			</g>
			<path d="M638.1,508.3h2.5v2.5h-2.5V508.3z"/>
		</g>
	</g>
</g>
<g id="Vector_Graphics">
	<g>
		<path class="st33" d="M256.3,207.9l-160.2-0.2l2.2-10.3l2-8l2.2-7.7l2.3-7.2l2-5.6l2-5.3l2.2-5.3l2.5-5.7l1.8-4l1.4-2.8l1.6-3.4    l1.8-3.5l1.5-2.9l1.7-3.1l1.7-3l1.7-2.9l2.1-3.5l1.9-3l2-3l2-3l2.8-4l2.6-3.6l2.4-3.2l2.7-3.5l2.7-3.3l2.6-3.1l2.9-3.3l2.6-2.9    l3.2-3.4l3.6-3.6l4.1-4l3.8-3.6l3.6-3.2l3.1-2.7l3.8-3.2l4.2-3.4l4-3.1l4.8-3.5l4.5-3.1l4.1-2.7l5.1-3.2l5-3l6.5-3.6l5.5-2.9    l5.2-2.5l4.7-2.2l5.1-2.2l5.8-2.3l7.3-2.6l6.1-2l6.2-1.9l6.3-1.7l6.1-1.4l4.8-1l5.9-1.1l7-1.1l7.9-1l7.1-0.7l6.7-0.4l5.6-0.2    l5.3-0.1l5.6,0.1l5.9,0.2l6.2,0.4l6,0.5l4.9,0.5l5.1,0.7l4.7,0.7l4.6,0.8l4.2,0.8l5.6,1.2l5.1,1.2l4.4,1.2l5.1,1.5l4.9,1.5l5.9,2    l5.7,2.1l5,2l4,1.7l4,1.8l3.6,1.7l3.5,1.7l3,1.5l2.8,1.5l2.7,1.5l3.3,1.8l4.3,2.5l3.8,2.3l4.3,2.7l4.5,3l4.6,3.3l4.4,3.3l4.7,3.7    l4.9,4.1l5.3,4.6l4.3,3.9l4.8,4.7l5.3,5.4l4,4.3l3.9,4.4l3.9,4.7l3.9,4.9l3.3,4.4l2.9,4l2.7,4l2.5,3.8l3.2,5.1l3,5l2.9,5.2    l2.9,5.5l2.6,5.2l2.5,5.5l2.2,5l1.9,4.6l1.4,3.6l2.3,6.4l1.8,5.1l1.4,4.3l1.2,3.9l1.1,3.8l1,3.7l1,4.4l0.9,3.9    c0,0,1.3,6.1,1.3,6.4H398.8L397,204l-1.6-2.2l-1.6-2.1l-1.8-2.2l-2.1-2.4l-1.9-2l-2.2-2.2l-2.3-2.2l-2.2-1.8l-2.1-1.7l-2.2-1.6    l-2.5-1.7l-2.3-1.5l-2.7-1.6l-2.6-1.5l-2.9-1.5l-3.3-1.5c0,0-4.7-1.9-5-2c0,0-3.9-1.3-4.4-1.4l-4.3-1.1l-3.8-0.8l-3.6-0.6l-3-0.4    c0,0-4-0.4-4.9-0.4l-4.3-0.1l-3.7,0.1l-4.2,0.3l-3.3,0.4l-3.3,0.5l-3.5,0.7l-3.8,0.9l-3.4,1.1c0,0-3.5,1.2-4.1,1.4    c0,0-3,1.2-3.8,1.6c0,0-3.8,1.8-4.6,2.2l-3.1,1.7l-3.5,2.1l-3.5,2.3c0,0-3.6,2.7-3.7,2.8c0,0-3.1,2.6-4.2,3.5l-2.2,2.1l-2.5,2.5    c0,0-2.2,2.5-2.6,2.9l-2.4,2.8l-2.4,3.1C259.8,202.7,256.5,207.3,256.3,207.9z"/>
		<path class="st32" d="M399.4,288.9l156.7-0.2l-2.1,10l-1.9,7.7l-2.1,7.5l-2.2,7l-1.9,5.4l-1.9,5.1l-2.1,5.2l-2.4,5.5l-1.8,3.9    l-1.3,2.7l-1.6,3.3l-1.7,3.4l-1.5,2.8l-1.7,3l-1.7,2.9l-1.7,2.8l-2.1,3.4l-1.9,2.9l-1.9,3l-2,2.9l-2.7,3.9l-2.6,3.5l-2.3,3.1    l-2.6,3.4l-2.6,3.2l-2.5,3l-2.8,3.2l-2.5,2.8l-3.1,3.3l-3.5,3.5l-4,3.9l-3.7,3.5l-3.5,3.2l-3,2.6l-3.8,3.1l-4.1,3.3l-3.9,3    l-4.7,3.4l-4.4,3l-4,2.6l-5,3.1l-4.9,2.9l-6.4,3.5l-5.4,2.8l-5.1,2.4l-4.6,2.1l-5,2.1l-5.7,2.3l-7.1,2.6l-6,2l-6,1.8l-6.1,1.7    l-5.9,1.4l-4.7,1l-5.8,1.1l-6.9,1.1l-7.7,1l-6.9,0.7l-6.6,0.4l-5.5,0.2l-5.2,0.1l-5.5,0l-5.8-0.2l-6-0.4l-5.9-0.5l-4.7-0.5l-5-0.6    l-4.6-0.7l-4.5-0.8l-4.1-0.8l-5.5-1.2l-5-1.2l-4.3-1.1l-4.9-1.4l-4.8-1.5l-5.7-1.9l-5.6-2.1l-4.9-1.9l-4-1.6L235,460l-3.5-1.6    l-3.4-1.7l-2.9-1.5l-2.7-1.4l-2.7-1.4l-3.3-1.8l-4.2-2.4l-3.7-2.3l-4.2-2.7l-4.4-2.9l-4.5-3.2l-4.3-3.2l-4.6-3.6l-4.8-3.9    l-5.1-4.5l-4.2-3.8l-4.7-4.5l-5.1-5.3l-3.9-4.2l-3.8-4.3l-3.8-4.6l-3.8-4.8l-3.2-4.3l-2.8-3.9l-2.7-3.9l-2.5-3.7l-3.2-5l-2.9-4.9    l-2.9-5.1l-2.9-5.4l-2.6-5.1l-2.5-5.3l-2.2-4.9l-1.9-4.4l-1.4-3.4l-2.3-6.2l-1.7-5l-1.3-4.2l-1.2-3.8l-1.1-3.7l-1-3.6l-1-4.2    l-0.9-3.8c0,0-1.3-6-1.3-6.2l158.3-0.3l1.7,2.5l1.6,2.2l1.6,2l1.8,2.1l2.1,2.4l1.9,1.9l2.2,2.1l2.3,2.1l2.1,1.8l2.1,1.7l2.1,1.6    l2.4,1.7l2.3,1.5l2.6,1.5l2.6,1.4l2.8,1.4l3.2,1.4c0,0,4.6,1.8,4.9,1.9c0,0,3.9,1.2,4.4,1.4l4.2,1.1l3.7,0.7l3.5,0.6l2.9,0.3    c0,0,3.9,0.3,4.8,0.4l4.2,0.1l3.6-0.1l4.2-0.3l3.2-0.4l3.2-0.5l3.5-0.7l3.7-0.9l3.3-1c0,0,3.4-1.1,4-1.4c0,0,2.9-1.2,3.7-1.5    c0,0,3.7-1.7,4.5-2.2l3-1.7l3.4-2l3.4-2.3c0,0,3.5-2.6,3.6-2.7c0,0,3.1-2.6,4.1-3.4l2.2-2l2.4-2.4c0,0,2.2-2.4,2.6-2.8l2.3-2.7    l2.3-3.1C396,294.1,399.2,289.6,399.4,288.9z"/>
		<g id="XMLID_1_">
			<g>
			</g>
			<g>
				<circle class="st34" cx="329.2" cy="245.4" r="233.7"/>
			</g>
		</g>
		<circle class="st35" cx="329.2" cy="244.2" r="67.3"/>
		<circle class="st35" cx="328.7" cy="244.8" r="43.9"/>
		<line class="st34" x1="273.9" y1="204.9" x2="99" y2="204.9"/>
		<line class="st34" x1="277.4" y1="289.8" x2="102.4" y2="289.8"/>
		<line class="st34" x1="558.9" y1="203.8" x2="384" y2="203.8"/>
		<line class="st34" x1="556.1" y1="288.7" x2="381.1" y2="288.7"/>
		<path class="st36" d="M268.5,208.2"/>
		<path class="st36" d="M271,207c0,0-25,36.5,4.1,80.9l-175.2-0.3c0,0-8.2-39-0.9-81L271,207z"/>
		<path class="st36" d="M386.2,288.3c0,0,24.9-37.3-4.1-82.6l175.2,0.3c0,0,8.2,39.9,0.9,82.7L386.2,288.3z"/>
		<circle class="st37" cx="328.7" cy="246" r="72.4"/>
	</g>
</g>
</svg>
